<?xml version="1.0" encoding="UTF-8"?>
<!DOCTYPE svg PUBLIC "-//W3C//DTD SVG 1.1//EN" "http://www.w3.org/Graphics/SVG/1.1/DTD/svg11.dtd">
<!-- Creator: CorelDRAW 2019 (64 Bit) -->
<svg xmlns="http://www.w3.org/2000/svg" xml:space="preserve" width="35.0506mm" height="53.8279mm" version="1.1" style="shape-rendering:geometricPrecision; text-rendering:geometricPrecision; image-rendering:optimizeQuality; fill-rule:evenodd; clip-rule:evenodd"
viewBox="0 0 295598 453956"
 xmlns:xlink="http://www.w3.org/1999/xlink">
 <defs>
  <style type="text/css">
   <![CDATA[
    .fil0 {fill:black}
   ]]>
  </style>
 </defs>
 <g id="Camada_x0020_1">
  <metadata id="CorelCorpID_0Corel-Layer"/>
  <g id="_1914441272112">
   <path class="fil0" d="M157122 0c-2424,462 -4340,2815 -4297,5279l0 10557c-5564,0 -11374,0 -16855,0 -2424,462 -4340,2816 -4296,5279l0 23754c-4439,2934 -8524,6454 -12229,10227 -27941,11734 -40166,32277 -50896,59054 -731,1881 -259,4170 1157,5608 2272,4462 2265,10036 2479,14846 260,5209 -882,10548 -2479,14681 -1240,1284 -1757,3220 -1322,4949 1609,6764 3876,13031 6610,18805 -6268,3917 -10452,7999 -14211,11712 -7202,-130 -15634,-945 -23960,660 -9073,1749 -18231,7448 -21317,18969 -2438,15027 -5925,30603 -9914,44208 -6469,15935 -6366,30124 -3305,45363 3409,11857 2120,24185 0,34806 -4291,15076 -2239,29225 3636,42228 3012,6615 6093,11712 9419,15670 4,10219 101,21317 5784,32661 545,1012 1430,1837 2479,2310 43407,21665 102000,32331 150375,32331 27849,0 46091,-12025 62463,-33815 7495,-11586 8508,-22573 6445,-37774 12226,-7868 21662,-16870 25283,-27712 3534,-10582 662,-22219 -8262,-32826 12180,-14327 13635,-29638 10080,-43878 6986,-1763 13366,-5367 17516,-11877 5384,-8446 8097,-19917 8097,-33816l0 -42229c0,-7918 -4854,-14840 -10410,-21774 -5268,-6573 -11547,-12833 -16690,-17979 -3196,-4707 -3084,-10776 -3305,-15671 -268,-5239 869,-10680 2479,-14846 1416,-1440 1888,-3728 1157,-5608 -10797,-26943 -23082,-47688 -51392,-59383 -3626,-3642 -7562,-6860 -11733,-9732l0 -23919c0,-2764 -2519,-5278 -5288,-5279l-15863 0 0 -10557c0,-2764 -2519,-5279 -5288,-5279 -7329,0 -14899,0 -22143,0l0 -1zm-14872 26393l52879 0 0 21114c5,1773 975,3513 2479,4455 16508,10462 29249,28004 29249,48331 0,32131 -25979,58064 -58167,58064 -32188,0 -58167,-25933 -58167,-58064 0,-19462 11855,-37983 29084,-48331 1564,-902 2603,-2651 2644,-4455l0 -21114zm26440 36785c-20380,0 -37015,16771 -37015,37115 0,20344 16635,36950 37015,36950 20380,0 37015,-16606 37015,-36950 0,-20344 -16634,-37115 -37015,-37115zm61306 8742c14288,10151 20151,24552 28257,44538 -3341,5546 -3371,12303 -3636,18145 -139,6811 967,12609 3800,18145 -4901,19623 -14743,33731 -29248,43384 -9915,5891 -19025,13563 -27265,21774 -4042,4035 -6775,3794 -12063,3794l0 -826c3999,-735 7696,-2008 10410,-4783 3890,-3977 5453,-9793 5453,-16166l0 -41898c11689,-7510 21028,-18399 26440,-31341 8761,0 15863,-7090 15863,-15836 0,-6923 -4540,-12693 -10741,-14845 -648,-8699 -3363,-16769 -7271,-24083l1 -1zm-123109 660c-3702,7301 -6178,15110 -6775,23423 -6202,2152 -10741,7922 -10741,14846 0,8746 7103,15836 15863,15836 5412,12942 14751,23831 26440,31341l0 41899c0,6373 1564,12189 5453,16165 2714,2775 6411,4049 10410,4783l0 825c-5288,0 -8021,243 -12063,-3794 -5178,-5169 -15723,-15624 -27265,-21608 -15673,-11522 -25322,-28568 -29249,-43548 3485,-5530 3532,-12288 3801,-18145 120,-6747 -917,-12608 -3636,-18145 5865,-17659 15575,-34936 27761,-43879l1 0zm3635 80498c-8761,0 -15863,7090 -15863,15836 0,8746 7103,15836 15863,15836 8762,0 15864,-7089 15864,-15836 0,-8746 -7103,-15836 -15864,-15836zm116334 0c-8762,0 -15864,7090 -15864,15836 0,8746 7103,15836 15864,15836 8761,0 15863,-7089 15863,-15836 0,-8746 -7102,-15836 -15863,-15836zm39494 10062c3696,3817 7397,7746 10576,11712 5020,6263 8097,12536 8097,15175l0 42229c0,12493 -2575,21973 -6445,28042 -3870,6070 -8537,8908 -14707,8908 -10350,-364 -16271,-1634 -22474,-3794 -1778,-14097 -7943,-21044 -19829,-25568 -10410,-2297 -20971,-2310 -31728,-2310l0 -5279c5288,0 13130,-406 19664,-6928 8708,-7430 16427,-15705 25613,-20455 14603,-9719 25166,-23755 31232,-41734zm-186233 19135c5830,9083 13201,16648 22143,22599 9567,5249 17887,12756 25613,20454 6534,6523 14377,6929 19664,6929l0 58065c-35504,0 -65578,-15063 -85763,-40250 -1086,-1368 -2885,-2138 -4627,-1979 -3792,342 -6027,5620 -3635,8578 21920,28223 56988,44266 94025,44207l0 10557c1,2764 2519,5279 5288,5279l31728 0c2769,0 5288,-2515 5288,-5279l0 -9732c11352,-369 23924,-2331 34040,-6763 8848,-4417 14107,-11336 16359,-18640 7702,2459 14562,3205 19830,3464 3752,13283 2818,25064 -10576,38435 -28660,20883 -58768,26656 -88751,25122 -32950,-1685 -65752,-12193 -96325,-21164 -2733,-1153 -6290,528 -7130,3369 -840,2841 1233,6180 4155,6694 35582,10408 67609,21187 99313,23258 30467,1991 60620,-4380 91877,-26557 6893,8144 7981,15195 5618,22269 -2605,7801 -10475,16196 -22474,23588 -30064,20449 -58507,22565 -83448,18804 -28757,-4586 -60670,-16435 -98983,-24083 -3933,-280 -6035,1706 -6338,5195 0,2452 1937,4763 4355,5197 37337,7454 68986,19413 99313,24249 27642,4406 54557,2474 81962,-14517 1834,8373 -721,18172 -4792,24083 -15356,20439 -28841,29692 -53871,29692 -46113,0 -102700,-10387 -143764,-30351 -3964,-8825 -4297,-17714 -4297,-27712 32,-1394 -516,-2792 -1487,-3794 -1398,-1395 -5779,-8104 -8923,-15011 -6522,-11970 -5263,-24155 -2975,-35629 3844,-13501 2525,-26516 0,-39095 -4622,-14583 -96,-28706 3305,-40249 3281,-11136 7222,-25943 9915,-44373 2115,-7901 6242,-10069 13054,-11382 6813,-1314 15795,-495 24126,-495 1419,-10 2824,-621 3800,-1650 4712,-4413 9105,-8627 13385,-11382l0 0zm109724 65817c10515,-179 19391,148 29249,1979 7813,2275 11800,11733 11898,17981 -32,6469 -2717,12838 -11402,17320 -8789,4190 -20739,5078 -29744,5773l-1 -43053z" display="inline"/>
  </g>
 </g>
</svg>
