<?xml version="1.0" encoding="UTF-8"?>
<!DOCTYPE svg PUBLIC "-//W3C//DTD SVG 1.1//EN" "http://www.w3.org/Graphics/SVG/1.1/DTD/svg11.dtd">
<!-- Creator: CorelDRAW 2019 (64 Bit) -->
<svg xmlns="http://www.w3.org/2000/svg" xml:space="preserve" width="40.6064mm" height="52.2822mm" version="1.1" style="shape-rendering:geometricPrecision; text-rendering:geometricPrecision; image-rendering:optimizeQuality; fill-rule:evenodd; clip-rule:evenodd"
viewBox="0 0 514076 661891"
 xmlns:xlink="http://www.w3.org/1999/xlink"
 xmlns:sketch="http://www.bohemiancoding.com/sketch/ns">
 <defs>
  <style type="text/css">
   <![CDATA[
    .fil0 {fill:black}
   ]]>
  </style>
 </defs>
 <g id="Camada_x0020_1">
  <metadata id="CorelCorpID_0Corel-Layer"/>
  <g id="noun_Paintball_x0020_Mask_62031.svg">
   <g sketch:type="MSPage">
    <g sketch:type="MSArtboardGroup">
     <g sketch:type="MSLayerGroup">
      <g>
       <path class="fil0" d="M257038 0c0,0 75622,-682 139662,41668 0,0 14987,26639 48370,28689 0,0 25207,24591 28613,41668 0,0 33383,28005 33383,56694 0,0 -10219,-10246 -14988,-4782 0,0 42920,65574 8857,165985 0,0 4768,62843 9538,73088 4769,10246 -6814,34153 -9538,36886 -2726,2731 -16350,43715 -19757,62842 -3407,19127 -27933,57377 -34745,63525 0,0 1362,19808 -5450,28005 -6814,8197 -40876,53279 -181219,67623l-5451 0c-140342,-14344 -174405,-59426 -181219,-67623 -6814,-8197 -5450,-28005 -5450,-28005 -6812,-6148 -31338,-44398 -34745,-63525 -3407,-19127 -17031,-60111 -19757,-62842 -2724,-2733 -14307,-26640 -9538,-36886 4770,-10246 9538,-73088 9538,-73088 -34063,-100411 8857,-165985 8857,-165985 -4769,-5464 -14988,4782 -14988,4782 0,-28689 33383,-56694 33383,-56694 3406,-17077 28613,-41668 28613,-41668 33383,-2050 48370,-28689 48370,-28689 64040,-42350 139662,-41668 139662,-41668l0 0zm182752 139256c981,480 1964,963 2947,1452 0,0 54450,41330 49341,113052 -5110,71721 -38833,100410 -38833,100410 0,0 -39854,35862 -68468,35349 -28614,-513 -66424,-38423 -78687,-63012 -12264,-24591 -21461,-42010 -49052,-42010 -27591,0 -36789,17419 -49052,42010 -12262,24589 -50073,62500 -78687,63012 -28614,513 -68468,-35349 -68468,-35349 0,0 -33724,-28689 -38833,-100410 -5110,-71722 49341,-113052 49341,-113052 0,0 1843,-1091 5372,-2933 -35044,13474 -58675,25158 -59208,25445l0 666c1281,-692 132952,-73554 239535,-73554 106583,0 236540,72196 237822,72888l-3751 2521 4973 -1855c-520,-281 -22858,-11476 -56293,-24630zm33451 -25762c-424,-127 -42401,-12733 -61435,-10901 -1647,820 -8311,3108 -18863,-6508 -1429,-1304 -3389,-3378 -5870,-6003 -16880,-17864 -61717,-65319 -130034,-65319 -68316,0 -113155,47455 -130034,65319 -2481,2626 -4441,4699 -5870,6003 -10553,9619 -17219,7326 -18863,6508 -19034,-1837 -61010,10774 -61434,10901l-887 -2942c1765,-534 43440,-13041 62942,-10986l375 39 314 211c29,16 5436,3157 15492,-6007 1346,-1225 3270,-3262 5707,-5843 17128,-18127 62625,-66279 132260,-66279 69635,0 115132,48152 132260,66279 2437,2580 4361,4617 5707,5843 10053,9163 15463,6025 15516,5991l294 -181 371 -53c19501,-2062 61175,10452 62942,10986l-886 2942zm-114728 423914c0,0 0,0 -1,0 -16845,-3 -41088,-24392 -41088,-32694 0,-5936 7828,-10336 26738,-20964 7543,-4240 16929,-9515 28172,-16219 15370,-9162 32494,-13808 50898,-13808 15281,0 25550,3283 25981,3422l149 58c3257,1451 5086,3702 5435,6691 648,5568 -4211,13513 -14442,23618 -7426,7334 -15135,13242 -15212,13302 -2005,1455 -48595,35124 -65179,36533 -479,41 -961,61 -1451,61l0 0zm64719 -80611c-17845,0 -34440,4501 -49331,13377 -11277,6724 -20684,12009 -28241,16258 -16759,9419 -25171,14146 -25171,18282 0,6022 22242,29618 38023,29621 401,0 799,-16 1190,-49 15745,-1338 63135,-35593 63613,-35939 8256,-6308 29523,-24781 28436,-34095 -214,-1838 -1377,-3214 -3556,-4204 -944,-294 -10858,-3250 -24963,-3250zm20440 7807l3660 0 0 8496 -3660 0 0 -8496zm-8782 15567l3661 9 37 -18605 -3660 -8 -38 18604zm-8899 -19636l3940 0 0 30333 -3940 0 0 -30333zm-8630 -170l3661 0 0 36635 -3661 0 0 -36635zm-9115 1089l3660 0 0 42531 -3660 0 0 -42531zm-9197 2716l3660 0 0 44840 -3660 0 0 -44840zm-8432 2979l3661 0 0 47171 -3661 0 0 -47171zm-8643 3855l4084 0 0 49569 -4084 0 0 -49569zm-8601 4228l3660 0 0 50941 -3660 0 0 -50941zm-8771 4834l3661 0 0 49390 -3661 0 0 -49390zm-8770 3060l3661 0 0 48733 -3661 0 0 -48733zm-8770 5389l3660 0 0 39640 -3660 0 0 -39640zm-8771 5111l3661 0 0 30479 -3661 0 0 -30479zm-9116 6198l3661 0 0 13537 -3661 0 0 -13537zm-72136 -7845c-23778,0 -46021,-18023 -46957,-18790 -163,-122 -5280,-4001 -10079,-10242 -6450,-8390 -9159,-17039 -7834,-25012 3346,-20134 47539,-30998 64870,-30998 17330,0 61524,10864 64871,30998 1324,7973 -1385,16623 -7834,25012 -4799,6241 -9917,10120 -10132,10282 -884,727 -23127,18749 -46905,18749zm0 -81968c-8066,0 -23045,2454 -36872,7837 -14859,5786 -23730,13099 -24974,20594 -2874,17291 16585,32182 16781,32328 271,222 22397,18135 45066,18135 22694,0 44795,-17914 45015,-18095 247,-187 19705,-15078 16833,-32369 -1247,-7495 -10117,-14808 -24976,-20594 -13827,-5383 -28806,-7837 -36872,-7837zm-101447 123371c-490,0 -974,-20 -1451,-61 -16585,-1409 -63174,-35078 -65148,-36511 -109,-81 -7818,-5988 -15244,-13323 -10232,-10105 -15091,-18051 -14441,-23617 348,-2990 2176,-5241 5434,-6693l149 -57c430,-139 10699,-3422 25981,-3422 18404,0 35528,4646 50897,13809 11245,6702 20632,11978 28175,16219 18909,10628 26738,15026 26738,20962 0,8304 -24244,32694 -41089,32694zm-89682 -77363c-2179,991 -3343,2366 -3557,4206 -1086,9314 20180,27786 28467,34117 446,323 47838,34579 63581,35915 391,34 787,51 1191,51 15779,0 38023,-23597 38023,-29621 0,-4136 -8413,-8863 -25171,-18282 -7558,-4247 -16964,-9534 -28242,-16258 -14889,-8876 -31487,-13377 -49331,-13377 -14140,0 -24020,2956 -24962,3249zm137181 -20131l3660 0 0 18941 -3660 0 0 -18941zm9197 -7063l3660 0 0 35943 -3660 0 0 -35943zm8430 -5217l3661 0 0 46577 -3661 0 0 -46577zm8432 -4670l3660 0 0 56295 -3660 0 0 -56295zm8814 -3552l3660 0 0 65525 -3660 0 0 -65525zm8430 -1926l3661 0 0 71529 -3661 0 0 -71529zm8770 -1323l3661 0 0 74224 -3661 0 0 -74224zm52074 23984l3661 0 0 18942 -3661 0 0 -18942zm-9197 -7063l3661 0 0 35943 -3661 0 0 -35943zm-8430 -5217l3660 0 0 46577 -3660 0 0 -46577zm-8432 -4669l3661 0 0 56294 -3661 0 0 -56294zm-8814 -3554l3661 0 0 65525 -3661 0 0 -65525zm-8430 -1924l3660 0 0 71528 -3660 0 0 -71528zm-196822 46320l3660 0 0 8496 -3660 0 0 -8496zm12442 15568l-3660 6 -38 -18604 3660 -6 38 18604zm4959 -19637l3939 0 0 30335 -3939 0 0 -30335zm8910 -170l3660 0 0 36635 -3660 0 0 -36635zm9115 1089l3660 0 0 42531 -3660 0 0 -42531zm9197 2716l3660 0 0 44840 -3660 0 0 -44840zm8430 2979l3660 0 0 47171 -3660 0 0 -47171zm8219 3855l4085 0 0 49569 -4085 0 0 -49569zm9025 4227l3661 0 0 50942 -3661 0 0 -50942zm8771 4835l3660 0 0 49390 -3660 0 0 -49390zm8770 3060l3661 0 0 48733 -3661 0 0 -48733zm8771 5389l3660 0 0 39640 -3660 0 0 -39640zm8770 5110l3660 0 0 30480 -3660 0 0 -30480zm9116 6200l3661 0 0 13537 -3661 0 0 -13537zm75431 143261c-13666,0 -32886,-4580 -50154,-11952 -11396,-4865 -31750,-15202 -40021,-29770 -4656,-8200 -4673,-16317 -51,-24125 8729,-14736 23326,-25479 43388,-31928 17311,-5565 35025,-6734 46837,-6734 11810,0 29524,1169 46837,6734 20062,6449 34659,17192 43388,31928 4622,7807 4606,15925 -51,24125 -8269,14568 -28624,24905 -40021,29770 -17268,7372 -36487,11952 -50154,11952zm-82434 -63945l3660 0 0 18942 -3660 0 0 -18942zm8770 -10424l3660 0 0 39790 -3660 0 0 -39790zm8771 -6679l3661 0 0 53149 -3661 0 0 -53149zm8770 -4744l3660 0 0 62636 -3660 0 0 -62636zm9116 -5397l3660 0 0 73429 -3660 0 0 -73429zm9196 -4263l3661 0 0 81956 -3661 0 0 -81956zm8432 -830l3660 0 0 85679 -3660 0 0 -85679zm8219 -1284l4084 0 0 89040 -4084 0 0 -89040zm9025 -1031l3661 0 0 92734 -3661 0 0 -92734zm10261 -682l3661 0 0 94594 -3661 0 0 -94594zm79455 35581l3661 0 0 18942 -3661 0 0 -18942zm-8770 -10423l3660 0 0 39789 -3660 0 0 -39789zm-9792 -6681l3660 0 0 53149 -3660 0 0 -53149zm-35515 -15234l3661 0 0 85679 -3661 0 0 -85679zm-8643 -1284l4085 0 0 89040 -4085 0 0 -89040zm-8601 -1031l3660 0 0 92734 -3660 0 0 -92734zm-6259 -3085c-19719,0 -67727,3621 -87588,37158 -4020,6787 -3993,13864 77,21036 13013,22918 62059,40168 87511,40168 25452,0 74498,-17249 87511,-40168 4070,-7172 4098,-14249 77,-21036 -19861,-33538 -67869,-37158 -87588,-37158zm50249 15890l3660 0 0 62638 -3660 0 0 -62638zm-9116 -5396l3660 0 0 73429 -3660 0 0 -73429zm-9197 -4263l3660 0 0 81956 -3660 0 0 -81956z" sketch:type="MSShapeGroup"/>
      </g>
     </g>
    </g>
   </g>
  </g>
 </g>
</svg>
